<?xml version="1.0" encoding="utf-8"?>
<!-- Generator: Adobe Illustrator 22.0.0, SVG Export Plug-In . SVG Version: 6.00 Build 0)  -->
<svg version="1.1" id="Capa_1" xmlns="http://www.w3.org/2000/svg" xmlns:xlink="http://www.w3.org/1999/xlink" x="0px" y="0px"
	 viewBox="0 0 512 512" style="enable-background:new 0 0 512 512;" xml:space="preserve">
<style type="text/css">
	.st0{fill:#FFFFFF;}
</style>
<g>
	<path class="st0" d="M437,75C388.7,26.6,324.4,0,256,0S123.3,26.6,75,75S0,187.6,0,256s26.6,132.7,75,181s112.6,75,181,75
		s132.7-26.6,181-75s75-112.6,75-181S485.4,123.3,437,75z M256,495.7C123.9,495.7,16.3,388.1,16.3,256S123.9,16.3,256,16.3
		S495.7,123.9,495.7,256S388.1,495.7,256,495.7z"/>
	<path class="st0" d="M256,32.7C132.9,32.7,32.7,132.9,32.7,256S132.9,479.3,256,479.3S479.3,379.1,479.3,256S379.1,32.7,256,32.7z
		 M445.1,340h-27.3v-45.1h41.4C456.3,310.6,451.5,325.8,445.1,340z M294.9,459.3v-41.4H340v27.3
		C325.8,451.5,310.6,456.3,294.9,459.3z M52.7,294.9h41.4V340H66.9C60.5,325.8,55.7,310.6,52.7,294.9z M49,256
		c0-7.6,0.4-15.2,1.2-22.6h43.9v45.1H50.3C49.4,271.2,49,263.6,49,256z M66.9,172h27.3v45.1H52.7C55.7,201.3,60.5,186.2,66.9,172z
		 M217.1,52.7v41.4H172V66.9C186.2,60.5,201.3,55.7,217.1,52.7z M459.3,217.1h-41.4V172h27.3C451.5,186.2,456.3,201.3,459.3,217.1z
		 M356.4,340v-45.1h45.1V340H356.4z M401.5,356.4v45.1h-45.1v-45.1H401.5z M286.7,329.1c-4.5,0-8.2,3.7-8.2,8.2v2.7h-45.1v-45.1
		h45.1v9.7c0,4.5,3.7,8.2,8.2,8.2c4.5,0,8.2-3.7,8.2-8.2v-9.7H340V340h-45.1v-2.7C294.9,332.8,291.2,329.1,286.7,329.1z M110.5,340
		v-45.1h45.1V340H110.5z M155.6,356.4v45.1h-45.1v-45.1H155.6z M278.6,217.1h-45.1V172h45.1V217.1L278.6,217.1z M294.9,172H340v45.1
		h-45.1V172z M233.4,233.4h45.1v45.1h-45.1L233.4,233.4L233.4,233.4z M217.1,278.6H172v-45.1h45.1V278.6z M217.1,217.1H172V172h45.1
		V217.1z M155.6,217.1h-45.1V172h45.1V217.1z M155.6,233.4v45.1h-45.1v-45.1H155.6z M172,294.9h45.1V340H172V294.9z M356.4,278.6
		v-9.7c0-4.5-3.7-8.2-8.2-8.2c-4.5,0-8.2,3.7-8.2,8.2v9.7h-45.1v-45.1H340v2.7c0,4.5,3.7,8.2,8.2,8.2c4.5,0,8.2-3.7,8.2-8.2v-2.7
		h45.1v45.1H356.4z M356.4,217.1V172h45.1v45.1H356.4z M356.4,155.6v-45.1h45.1v45.1H356.4z M417.8,155.6v-28.5
		c7.1,8.9,13.5,18.4,19.1,28.5H417.8z M356.4,94.2V75c10,5.6,19.6,12,28.5,19.1H356.4z M340,94.2h-45.1V52.7
		c15.7,3,30.9,7.8,45.1,14.2V94.2z M340,110.5v45.1h-45.1v-45.1C294.9,110.5,340,110.5,340,110.5z M278.6,155.6h-45.1v-45.1h45.1
		V155.6L278.6,155.6z M217.1,155.6H172v-10.2c0-4.5-3.7-8.2-8.2-8.2s-8.2,3.7-8.2,8.2v10.2h-45.1v-45.1h45.1v2.2
		c0,4.5,3.7,8.2,8.2,8.2s8.2-3.7,8.2-8.2v-2.2h45.1V155.6z M155.6,94.2h-28.5c8.9-7.1,18.4-13.5,28.5-19.1V94.2z M94.2,155.6H75
		c5.6-10,12-19.6,19.1-28.5L94.2,155.6L94.2,155.6z M94.2,356.4v28.5c-7.1-8.9-13.5-18.4-19.1-28.5H94.2z M155.6,417.8V437
		c-10-5.6-19.6-12-28.5-19.1H155.6z M172,417.8h45.1v41.4c-15.7-3-30.9-7.8-45.1-14.2V417.8z M172,401.5v-45.1h45.1v45.1H172z
		 M233.4,356.4h45.1v45.1h-45.1L233.4,356.4L233.4,356.4z M294.9,356.4H340v45.1h-45.1V356.4z M356.4,417.8h28.5
		c-8.9,7.1-18.4,13.5-28.5,19.1V417.8z M417.8,356.4H437c-5.6,10-12,19.6-19.1,28.5V356.4z M417.8,278.6v-45.1h43.9
		c0.8,7.4,1.2,14.9,1.2,22.6c0,7.6-0.4,15.2-1.2,22.6H417.8z M278.6,94.2h-45.1V50.3c7.4-0.8,14.9-1.2,22.6-1.2
		c7.6,0,15.2,0.4,22.6,1.2V94.2z M233.4,417.8h45.1v43.9c-7.4,0.8-14.9,1.2-22.6,1.2c-7.6,0-15.2-0.4-22.6-1.2V417.8z"/>
</g>
</svg>
