<?xml version="1.0" encoding="utf-8"?>
<!-- Generator: Adobe Illustrator 22.0.0, SVG Export Plug-In . SVG Version: 6.00 Build 0)  -->
<svg version="1.1" id="Capa_1" xmlns="http://www.w3.org/2000/svg" xmlns:xlink="http://www.w3.org/1999/xlink" x="0px" y="0px"
	 viewBox="0 0 512 512" style="enable-background:new 0 0 512 512;" xml:space="preserve">
<style type="text/css">
	.st0{fill:#E7ECED;}
	.st1{fill:#343A40;}
</style>
<g>
	<path class="st0" d="M179.8,401.4l-76.4,41.7c-4.5,2.4-8.5,5.4-12.3,8.7c44.5,37.5,102,60.2,164.8,60.2
		c62.3,0,119.5-22.3,163.9-59.4c-4.1-3.5-8.5-6.6-13.5-9l-81.8-40.9c-10.6-5.3-17.2-16.1-17.2-27.9v-32.1c2.3-2.6,4.9-6,7.7-10
		c11.1-15.7,19.6-33.1,25.4-51.2c10.5-3.2,18.2-12.9,18.2-24.4v-34.3c0-7.5-3.4-14.3-8.6-19v-49.5c0,0,10.2-77.1-94.2-77.1
		s-94.2,77.1-94.2,77.1v49.5c-5.2,4.7-8.6,11.4-8.6,19v34.3c0,9,4.7,17,11.8,21.6c8.6,37.3,31,64.1,31,64.1V374
		C196.1,385.4,189.8,395.9,179.8,401.4z"/>
	<g>
		<path class="st1" d="M260.4,0C119-2.4,2.5,110.3,0,251.6c-1.4,80.2,34.4,152.2,91.2,200.1c3.7-3.2,7.7-6.2,12.1-8.6l76.4-41.7
			c10-5.5,16.3-16,16.3-27.4v-31.3c0,0-22.4-26.8-31-64.1c-7.1-4.6-11.8-12.5-11.8-21.6v-34.3c0-7.5,3.4-14.3,8.6-19v-49.5
			c0,0-10.2-77.1,94.2-77.1s94.2,77.1,94.2,77.1v49.5c5.2,4.7,8.6,11.4,8.6,19V257c0,11.5-7.7,21.2-18.2,24.4
			c-5.8,18.2-14.3,35.5-25.4,51.2c-2.8,4-5.4,7.3-7.7,10v32.1c0,11.8,6.7,22.6,17.2,27.9l81.8,40.9c4.9,2.5,9.3,5.6,13.4,9
			c55.2-46,90.8-114.8,92.1-192.2C514.4,119,401.7,2.5,260.4,0z"/>
	</g>
</g>
</svg>
