<svg version="1" xmlns="http://www.w3.org/2000/svg" width="933.333" height="933.333" viewBox="0 0 700.000000 700.000000"><path d="M329.8.4c-.1.2-4.1.6-8.8.9-18.4 1.3-52 7.1-61.1 10.6-1.3.5-2.8.9-3.4 1-10.3 1.5-39.3 12.5-60 22.7-20.2 9.9-31.6 16.6-46 26.8-7.7 5.5-23.7 17.7-24.5 18.7-.3.3-3.6 3.3-7.5 6.6-12.8 11-37.1 36.9-44.5 47.3-1.3 1.9-3.3 4.4-4.3 5.5-2.6 2.8-19.7 28.8-23.7 36-15.5 27.9-25.3 51.3-33.5 80.7-2.8 9.8-8.3 36.7-9.1 44.3-.3 2.7-.7 6.1-1 7.5-2.6 15.1-2.5 65.5.1 82.5.3 1.6.7 5 1 7.5.3 2.5.7 5.6 1 7 .3 1.4.7 3.8 1 5.5.4 2.7 1.7 9.6 2.9 15C20 479.6 47.4 534.8 82.9 576c13.6 15.9 32.8 34.6 46.4 45.5 2.1 1.6 4.4 3.4 5 4 6.4 5.4 24.6 18 35.8 24.8 29.4 17.7 70.4 34.3 101.4 40.8 3.3.7 6.5 1.4 7 1.5 11.4 2.5 28.1 4.9 42.5 6.2 16.7 1.4 61.3.6 70.5-1.3 1.1-.2 4.5-.7 7.5-1.1 7.7-.9 9.4-1.1 12.7-1.8 1.5-.4 4.2-.9 5.8-1.1 9.3-1.5 32.1-7.6 45.5-12.2 95.6-32.4 173.6-106.4 211.6-200.6 12.8-31.5 21.2-67.1 24.2-101.2 1.4-16.1.5-66.6-1.3-71.8-.2-.7-.6-3.5-.9-6.2-.6-4.9-1.1-8.4-2.1-13.5-.3-1.4-.8-3.9-1.1-5.5-8.4-47.9-31.7-100-63.3-142.2C591.9 89.5 543.5 52 482.5 25.9 462.1 17.2 429 8 405.5 4.4c-2.7-.4-5.2-.8-5.5-.9-.3-.1-4.1-.5-8.5-1-4.4-.4-8.9-1-10-1.2-2.6-.4-51.2-1.3-51.7-.9zm47.2 23c3.6.3 8.1.7 10 1 1.9.3 5.9.8 8.9 1.2 5.2.6 6.7.8 12.1 1.9 1.4.2 4 .7 5.8 1C426.3 30.6 454.5 39 472 46c11.2 4.4 36.5 16.8 41 20 1.6 1.1 3.1 2 3.5 2 1.2 0 27.3 17.8 34.9 23.8 73.1 57.7 118.3 141.7 125.3 233.2 1.2 16.2.6 52.8-1.1 61.5-.2 1.1-.7 4.9-1.1 8.5-.3 3.6-1 8.1-1.5 10-.5 1.9-1.1 5.1-1.3 7-2 14.8-13.2 50.7-21.7 69.5-11.2 24.7-26.4 50.5-39.6 67.1-2.7 3.4-6.2 7.8-7.9 9.9-11.4 14.5-37.1 39.2-54.2 52.1-8.8 6.6-28.8 20.2-31.8 21.5-1.1.5-3.6 1.9-5.5 3.1-6.8 4.1-30.6 15.6-40 19.3-14.8 5.8-29.3 10.3-44.5 14-12 2.9-18.5 4-39 7-12.3 1.9-46.6 2.5-62.6 1.2-7.9-.6-27.2-3.1-32.9-4.2-1.4-.3-5.1-1-8.2-1.5-7-1.3-28.1-7-38-10.4-18.2-6.1-36.4-14.1-53.7-23.8-5.8-3.2-10.6-5.8-10.7-5.8-.8 0-20.5-13.5-28.9-19.9C88.7 562.9 43.4 490.7 28.6 413.5c-.8-4.4-1.7-8.9-2-10-.2-1.1-.7-4.9-1.1-8.5-.4-3.6-.9-7.4-1.1-8.4-.9-5-1.7-20.6-1.8-34.1 0-14.6 1.1-38.2 1.9-40.8.2-.6.6-3.5.9-6.3.8-7.6 5.3-29.5 8.2-40.4 4.6-17.2 10.7-34.1 17.5-48.8 1.6-3.5 2.9-6.5 2.9-6.8 0-.2 3.1-6.2 7-13.3 19-35.3 42.9-65.5 72-91.1 4.7-4.1 8.7-7.7 9-8 1.5-1.6 14.8-11.5 23-17.2 40.9-28.2 94.5-49 140-54.3 3-.3 6.2-.8 7-1 .8-.2 6-.7 11.5-1.1 5.5-.3 10.1-.7 10.2-.8.5-.4 36.8.3 43.3.8z"/><path d="M348.8 44.4c-.1.2-6.4.6-13.8.9-12.7.5-36.9 3.5-47 5.8-2.5.6-5.4 1.2-6.4 1.5-5.4 1.1-19.1 4.9-26.6 7.4-13.2 4.3-16.2 5.5-29.3 11.5-4.3 1.9-8 3.5-8.2 3.5-.2 0-5.5 2.8-11.7 6.1-43.3 23.5-80.5 57.1-108 97.4-4.1 6-8.3 12.6-9.4 14.5-1 1.9-2.4 4.2-3 5-1.4 1.8-11.1 21.1-14.9 29.5-13.4 30-22 64.2-25 100-.7 8.2-.7 36.4 0 45 .5 6.4 2.5 22.6 3.1 26 .2 1.1.9 4.7 1.5 8 2.5 14.4 10.8 43.4 15.4 54 .7 1.6 2.3 5.5 3.5 8.5 4.8 12 17.9 36.2 26.6 49.2 40.8 61.2 100.3 104.8 170.9 125.3 5 1.5 9.7 2.8 10.6 3 .9.2 5.9 1.2 11 2.4 5.2 1.1 11.4 2.3 13.9 2.6 2.5.3 5.4.8 6.5.9 1.1.2 5.4.7 9.5 1.1 4.1.4 8.6.9 10 1.1 3.5.6 37.1.5 45-.1 33.7-2.6 72.3-12.5 101.5-26 4.2-1.9 7.8-3.5 8-3.5.2 0 5.5-2.7 11.7-6.1 26-14.1 50.5-32.4 71.8-53.8 12.7-12.8 14.8-15.1 21-23.1 1.9-2.5 3.7-4.7 4-5 2.6-2.4 22-31.2 22-32.7 0-.3.6-1.4 1.4-2.2 1.3-1.5 12.6-23.6 15.9-31.1 8-18.5 16.4-45.7 19.2-62.5.3-1.7.8-4.1 1-5.5.3-1.4.7-3.4.9-4.5.7-3.7 2.4-18.1 3.1-27 .6-6.2.6-36 0-43.5-.6-8.4-2.2-22-3-25-.2-.8-.7-3.5-1-6-.4-2.5-1.5-8.6-2.6-13.5-9.5-43.4-30.7-87.7-58.8-123-32.6-41-78.5-75.3-126.1-94-8-3.1-23.5-8.5-29-10.1-4.9-1.3-18-4.5-20.5-4.9-1.6-.3-3.7-.8-4.5-1-.8-.2-3.7-.7-6.5-1.1-2.7-.3-5.3-.8-5.6-1-.3-.2-3.5-.6-7-1-3.5-.3-6.7-.8-7.1-1-.4-.3-7.6-.7-16-1-8.4-.3-15.8-.7-16.5-.9-.6-.2-1.3-.2-1.5-.1zm28.5 24.1l3.7.7V129h-61.8l.2-30.2.1-30.2 6.4-.3c3.6-.2 6.6-.5 6.9-.7.6-.7 40.6.1 44.5.9zM297 100.4v28.3h-31l-31-.1V91.4l7.8-3.2c14.9-6.1 45.1-15.2 53.5-16.1.4-.1.7 12.7.7 28.3zm123.5-24.3c10.1 2.6 26.7 8.1 36.8 12.1l7.7 3.2v37.3l-31 .1h-31V72.3l4.8.8c2.6.5 8.3 1.8 12.7 3zm-207.8 39.6l-.2 12.8-19.3.2-19.4.1 10-7.3c9.3-6.9 26.8-18.3 28.4-18.4.4-.1.6 5.6.5 12.6zm284.5-7.1c9.9 6 27.7 18.5 27.8 19.5 0 .3-8.4.5-18.7.5l-18.8-.1-.2-12.8c-.1-7 0-12.7.2-12.7.3 0 4.6 2.5 9.7 5.6zM213 154.4c0 2.6.9 4.4 3.5 7.2 3.3 3.4 3.8 3.6 8.1 3.1 5.9-.6 9.3-3.9 10.1-9.5l.6-4.2H297l-.2 30.7-.3 30.8-30.7.1-30.8.2v-9c0-8.9 0-9-3.4-12.4-2.8-2.8-4.2-3.4-7.6-3.4-5.8 0-11 5-11.1 10.6 0 2.2-.1 6.1-.2 8.9l-.2 5-30.7.2-30.8.1V151h62v3.4zm168 27.5v30.8l-31 .1h-31l.2-30.9.1-30.9H381v30.9zm84 0v30.9h-31l-31 .1V151h62v30.9zm84 0v30.9h-61.8l-.1-30.9-.1-30.9h62v30.9zm36.7 12.1c4.7 7 11.3 17.7 11.3 18.4 0 .1-5.8.3-12.9.4l-12.9.2-.2-19.7-.1-19.7 4.9 6.5c2.7 3.5 7.2 9.8 9.9 13.9zm-457.1-.3l-.1 18.8-12.7.2c-7.1.1-12.8 0-12.8-.2 0-2.1 23.7-37.4 25.1-37.5.3 0 .6 8.4.5 18.7zm.1 72l-.2 30.8-28.3.3c-26.7.2-28.3.1-27.9-1.5.3-1 1.3-5.2 2.2-9.3 3.5-15.3 13.8-46 16.8-49.8.7-.9 5.8-1.2 19.2-1.2h18.3l-.1 30.7zm84.1.3v31H151v-62h61.8v31zm84-.3l-.3 30.8-30.7.3-30.8.2v-62h62l-.2 30.7zm84.2.3v31h-62v-62h62v31zm84 0v31h-62v-62h62v31zm84 0v31h-62l.1-31 .1-31H549v31zm60.7-28.3c7.1 16.2 12.7 34.1 17.7 56.6l.7 2.8-28.4-.1-28.4-.1.2-30.7c.1-16.9.3-30.8.3-31 .1-.1 8.4-.2 18.5-.2h18.2l1.2 2.7zm-481.1 112l-.1 30.8H68.6l-.5-5.5c-1.1-11.1-.5-50.3.8-55.8.1-.1 13.5-.2 29.9-.2h29.8v30.7zm84.1 0l-.2 30.8-30.7.1-30.8.2V319h61.8l-.1 30.7zm84.3.4V381h-62v-61.8h62v30.9zm83.6-.4l-.1 30.8-30.7.2-30.8.1V319h61.8l-.2 30.7zm84.4-27.6c0 7.3 5.4 12.4 12.4 11.5 5.4-.6 8.7-4.2 9.3-9.9l.5-4.5H549V381h-61.9v-7.9c.1-9.2-1.5-13.1-6.2-15.3-4.3-2.1-8.8-1.3-12.4 2.3-2.8 2.8-3 3.5-3.3 11.9l-.4 9H403v-62.1l31 .2 31 .1v2.9zm166.1-2.4c0 .5.3 3 .7 5.8.7 6.2.8 40.9.1 49l-.5 6-30.2.3-30.1.2v-61.9l29.9-.1c16.5 0 30 .3 30.1.7zM128.7 434v31H91.5l-3.6-8.8c-6.7-15.8-16.7-51-15.1-52.7.3-.3 13-.5 28.2-.5h27.7v31zm83.9-.3l-.1 30.8-30.7.3-30.8.2v-62h61.8l-.2 30.7zm84.4.3v31h-62v-62h62v31zm83.8-23c.2 11.6 3.5 16.3 11.2 16.3 7.7 0 11-4.8 11-16.2V403h62v62h-62v-3c0-4.3-2.5-8.7-6-10.5-3.7-1.9-6.3-1.9-10 0-3.4 1.8-5.1 4.5-6 9.5l-.5 3.5-30.8.3-30.7.2v-62h61.7l.1 8zM549 434v31h-61.9v-30.2c0-16.6.3-30.6.5-31 .3-.4 14.2-.8 31-.8H549v31zm78.6-30.2c-.2.4-.7 2.6-1.1 5-1.8 12.6-13.9 49.7-17.8 54.9-.7 1-5.8 1.3-19.3 1.3H571v-30.4c0-16.7.3-30.6.7-31 .9-.9 56.5-.8 55.9.2zM129 506.1c-.1 10.4-.3 18.9-.6 18.9-1.5 0-25.4-35.2-25.4-37.4 0-.3 5.9-.5 13-.5h13.1l-.1 19zm83.8 12l-.1 30.9H151v-61.7h30.9l30.9-.1v30.9zm84.2.1V549h-62v-61.8l31 .1h31v30.9zm83.8 0V549H319v-61.9l30.9.1 30.8.2.1 30.8zm84.2 0V549h-62v-61.9l31 .1 31 .1v30.9zm84-.1V549h-61.8v-30.9l-.1-31 31 .1H549v30.9zm48-30.6c0 2.2-23.6 37.3-25.1 37.4-.9.1-.5-35.2.4-36.6.5-.8 4.7-1.2 12.7-1.2 6.6 0 12 .2 12 .4zM212.7 583c.1 6.3 0 12.1-.2 12.7-.6 1.9-29-15.9-37.7-23.6-.4-.4 7.9-.7 18.5-.6h19.2l.2 11.5zm84.3 15.9c0 15.3-.2 28-.5 28.3-1.7 1.7-40.9-9.9-55.1-16.2l-6.4-2.9v-17.9c0-9.8.3-18.1.6-18.5.4-.3 14.3-.6 31-.6H297v27.8zm83.8 2.1c0 16.5-.1 30-.2 30.1-2.6 1.3-45.3 1.8-54.6.6-3-.3-5.8-.7-6.2-.7-.5 0-.8-13.5-.8-30v-30h61.8v30zm84.2-10.9v18.7l-10.3 4c-11.4 4.5-30.7 10.5-40.7 12.8-3.6.8-7.5 1.7-8.7 1.9l-2.3.5v-27.8c0-15.3.2-28.1.5-28.3.2-.3 14.2-.5 31-.5H465v18.7zm51.1-11.5c-8.6 6.3-27.2 18.4-28.4 18.4-.6 0-.6-24.3 0-25.2.2-.4 9-.7 19.5-.7h19l-10.1 7.5z"/></svg>